<?xml version="1.0" encoding="UTF-8"?>
<svg version="1.1" viewBox="0 0 72.357777 61.204242" xmlns="http://www.w3.org/2000/svg">
 <g transform="translate(-50 -95.553)">
  <rect x="56.815" y="96.622" width="58.774" height="39.012" ry="4.0807" fill="none" stroke="#0cc" stroke-width="1.0811"/>
  <rect x="60.424" y="100.67" width="51.558" height="29.364" fill="none" stroke="#0cc" stroke-width="1.0312"/>
  <path d="m51.161 136.17v1.4698c0 1.7882 1.4512 3.2402 3.2804 3.2402h63.489c1.8291 0 3.3145-1.4521 3.3145-3.2402v-1.4698h-70.084z" fill="none" stroke="#0cc" stroke-miterlimit="60.9" stroke-width="1.0811"/>
  <path d="m50.529 135.79 5.6424-3.6355h59.758l5.8989 3.5101z" fill="#0cc"/>
  <ellipse cx="86.179" cy="98.756" rx=".89765" ry=".87753" d="m 87.076228,98.756325 a 0.89765471,0.87753171 0 0 1 -0.897654,0.877531 0.89765471,0.87753171 0 0 1 -0.897655,-0.877531 0.89765471,0.87753171 0 0 1 0.897655,-0.877532 0.89765471,0.87753171 0 0 1 0.897654,0.877532 z" fill="#0cc"/>
  <rect x="73.587" y="103.37" width="32.862" height="48.491" ry="5.0511" fill="#fff" stroke="#0cc" stroke-width="1.0811"/>
  <rect x="77.514" y="108.41" width="25.008" height="36.581" ry="0" fill="#fff" stroke="#0cc" stroke-width="1.0811"/>
  <rect x="86.918" y="147.49" width="6.2003" height="1.8184" fill="#0cc"/>
  <ellipse cx="90.462" cy="105.99" rx=".7783" ry=".76085" d="m 91.240275,105.99403 a 0.77829951,0.76085216 0 0 1 -0.7783,0.76086 0.77829951,0.76085216 0 0 1 -0.778299,-0.76086 0.77829951,0.76085216 0 0 1 0.778299,-0.76085 0.77829951,0.76085216 0 0 1 0.7783,0.76085 z" fill="#0cc"/>
  <rect x="65.017" y="124.5" width="19.385" height="31.19" ry="3.249" fill="#fff" stroke="#0cc" stroke-width="1.0811"/>
  <rect x="67.334" y="127.74" width="14.752" height="23.53" ry="0" fill="#fff" stroke="#0cc" stroke-width="1.0811"/>
  <rect x="72.881" y="152.88" width="3.6575" height="1.1696" fill="#0cc"/>
  <rect x="110.08" y="135.51" width="11.445" height=".60983" color="#000000" fill="#0cc"/>
 </g>
</svg>
