<?xml version="1.0" encoding="UTF-8"?>
<svg viewBox="0 0 60 60" xmlns="http://www.w3.org/2000/svg">
 <path transform="matrix(.97502 0 0 .97502 .81216 -1.4191)" d="m4.4534 32.77c-0.12724 0 3.181-19.213 15.142-19.468 16.287 0.25448 6.9982 39.699 24.303 39.445 11.706-0.25448 11.579-19.086 11.579-19.086" fill="none" stroke="#333" stroke-linecap="round" stroke-linejoin="round" stroke-width="5.1281"/>
 <path transform="translate(-22.704 -19.457)" d="m74.2103,45.49453h6.29027a.29037,.29037 0 0,1 .29037.29037v6.29027a.29037,.29037 0 0,1 -.29037.29037h-6.29027a.29037,.29037 0 0,1 -.29037-.29037v-6.29027a.29037,.29037 0 0,1 .29037-.29037" fill="#b3b3b3" fill-rule="evenodd" stroke="#333" stroke-width="1.25"/>
 <path transform="translate(-2.1812 17.526)" d="m4.75435,9.14547h6.29027a.29037,.29037 0 0,1 .29037.29037v6.29027a.29037,.29037 0 0,1 -.29037.29037h-6.29027a.29037,.29037 0 0,1 -.29037-.29037v-6.29027a.29037,.29037 0 0,1 .29037-.29037" fill="#b3b3b3" fill-rule="evenodd" stroke="#333" stroke-width="1.25"/>
</svg>
